<?xml version="1.0" encoding="UTF-8" standalone="no"?>
<!-- Created with Inkscape (http://www.inkscape.org/) -->

<svg
   version="1.1"
   id="svg6025"
   width="1295.7089"
   height="1027.9696"
   viewBox="0 0 1295.7089 1027.9696"
   sodipodi:docname="todoLogo.svg"
   inkscape:version="1.1.1 (1:1.1+202109281949+c3084ef5ed)"
   xmlns:inkscape="http://www.inkscape.org/namespaces/inkscape"
   xmlns:sodipodi="http://sodipodi.sourceforge.net/DTD/sodipodi-0.dtd"
   xmlns:xlink="http://www.w3.org/1999/xlink"
   xmlns="http://www.w3.org/2000/svg"
   xmlns:svg="http://www.w3.org/2000/svg">
  <defs
     id="defs6029">
    <linearGradient
       inkscape:collect="always"
       id="linearGradient8596">
      <stop
         style="stop-color:#3394e8;stop-opacity:1;"
         offset="0"
         id="stop8592" />
      <stop
         style="stop-color:#3394e8;stop-opacity:0;"
         offset="1"
         id="stop8594" />
    </linearGradient>
    <linearGradient
       inkscape:collect="always"
       xlink:href="#linearGradient8596"
       id="linearGradient8462"
       x1="995.01953"
       y1="281.82132"
       x2="1326.2828"
       y2="-78.201744"
       gradientUnits="userSpaceOnUse" />
    <linearGradient
       inkscape:collect="always"
       xlink:href="#linearGradient8596"
       id="linearGradient8598"
       x1="463.08026"
       y1="898.93597"
       x2="823.92847"
       y2="435.62479"
       gradientUnits="userSpaceOnUse" />
  </defs>
  <sodipodi:namedview
     id="namedview6027"
     pagecolor="#ffffff"
     bordercolor="#999999"
     borderopacity="1"
     inkscape:pageshadow="0"
     inkscape:pageopacity="0"
     inkscape:pagecheckerboard="true"
     showgrid="false"
     fit-margin-top="0"
     fit-margin-left="0"
     fit-margin-right="0"
     fit-margin-bottom="0"
     inkscape:zoom="0.25391562"
     inkscape:cx="-565.14838"
     inkscape:cy="1433.5471"
     inkscape:window-width="1920"
     inkscape:window-height="1005"
     inkscape:window-x="0"
     inkscape:window-y="46"
     inkscape:window-maximized="1"
     inkscape:current-layer="g6031" />
  <g
     inkscape:groupmode="layer"
     inkscape:label="Image"
     id="g6031"
     transform="translate(-1488.0795,865.81041)">
    <g
       id="g8275"
       transform="translate(1461.5062,-870.84191)"
       inkscape:groupmode="layer"
       inkscape:label="g8275"
       style="display:inline">
      <path
         style="fill:url(#linearGradient8462);fill-opacity:1"
         d="m 525.5,1031.1304 c -15.79269,-4.546 1.59462,12.1107 -252.66891,-242.0531 C 97.144979,613.46006 38.140931,553.89739 35.046555,549.04153 29.045668,539.62461 26.573283,530.71301 26.573283,518.5 c 0,-12.2228 2.47571,-21.13653 8.482636,-30.54153 5.522594,-8.64668 197.703851,-201.04052 206.116251,-206.34425 3.11969,-1.96685 9.18149,-4.75414 13.47067,-6.19397 7.04994,-2.36659 8.90519,-2.57789 19.32783,-2.20127 13.13075,0.47447 19.89636,2.43978 28.9902,8.42122 3.3776,2.22161 50.55264,48.85467 120.89044,119.50158 C 487.29453,464.8638 539.71655,517 540.34469,517 540.97283,517 654.66475,403.90191 792.99338,265.67091 1063.6711,-4.815731 1047.3925,10.865882 1061.9315,6.5953793 c 7.0053,-2.0576377 22.7465,-2.0907358 30.5269,-0.064187 14.2367,3.7081747 10.4448,0.2578821 116.3864,105.9010477 62.4021,62.22625 100.1416,100.59776 103.261,104.99021 6.8445,9.63781 10.0933,20.04026 10.1743,32.57755 0.072,11.0965 -1.745,18.38785 -6.9767,28 -3.1028,5.70077 -48.9876,51.95354 -373.17061,376.16353 -330.08458,330.11202 -370.28331,369.98607 -375.71275,372.67857 -12.53367,6.2154 -28.43595,7.8819 -40.92004,4.2883 z"
         id="path8281" />
      <path
         style="fill:url(#linearGradient8598);fill-opacity:1"
         d="M 526.27451,1029.5208 C 511.58638,1025.3964 524.79045,1037.9546 307.5,821.4487 44.5736,559.47165 38.189499,553.02359 34.288457,545.5 c -4.90486,-9.45957 -6.636071,-16.74253 -6.536942,-27.5 0.102912,-11.16805 2.355869,-19.40135 7.833796,-28.62813 2.815377,-4.7421 26.287063,-28.73294 103.776479,-106.07183 108.08752,-107.87757 103.81339,-103.98527 118.28255,-107.71585 7.79338,-2.00936 21.20839,-2.03404 28.81411,-0.053 14.3953,3.7495 8.72621,-1.48584 136.05138,125.64193 C 487.41524,465.97791 540.89223,519 541.34759,519 c 0.45536,0 28.12594,-27.04717 61.49017,-60.10483 33.36423,-33.05766 61.6472,-60.56734 62.85104,-61.13263 2.45288,-1.15181 5.3112,0.82114 5.3112,3.66603 0,0.86429 0.675,1.57143 1.5,1.57143 0.825,0 1.5,0.45 1.5,1 0,0.55 0.48214,1 1.07143,1 1.27631,0 3.92857,2.50223 3.92857,3.70633 0,0.8958 3.62673,4.29367 4.58286,4.29367 1.16381,0 3.41714,2.92029 3.41714,4.42857 0,0.86429 0.5625,1.57198 1.25,1.57265 1.52077,0.001 6.75,4.37303 6.75,5.64289 0,0.92424 3.58358,4.35589 4.54874,4.35589 0.28923,0 2.49394,2.025 4.89937,4.5 2.40542,2.475 5.08864,4.5 5.96269,4.5 0.87406,0 1.5892,0.675 1.5892,1.5 0,0.825 0.45,1.5 1,1.5 0.55,0 1,0.9 1,2 0,1.11111 0.66667,2 1.5,2 0.825,0 1.5,0.45 1.5,1 0,0.55 0.8687,1 1.93045,1 1.23055,0 2.0463,0.80364 2.25,2.21658 0.18067,1.25326 1.61612,2.88301 3.30291,3.75 3.62101,1.86116 5.44239,3.94773 5.48484,6.28342 0.0208,1.1455 0.81912,1.75 2.31104,1.75 1.25358,0 2.92792,0.9 3.72076,2 0.79284,1.1 2.01718,2 2.72076,2 0.70358,0 1.27924,0.94213 1.27924,2.09362 0,1.22761 0.79867,2.30248 1.93083,2.59854 1.06195,0.27771 2.17283,1.13558 2.46861,1.90638 0.29578,0.7708 1.45191,1.40146 2.56918,1.40146 1.16556,0 2.03138,0.65871 2.03138,1.54545 0,1.74003 4.34931,6.45455 5.95455,6.45455 0.575,0 1.04545,0.94213 1.04545,2.09362 0,1.22761 0.79867,2.30248 1.93083,2.59854 1.06195,0.27771 2.17283,1.13558 2.46861,1.90638 0.29578,0.7708 1.45191,1.40146 2.56918,1.40146 1.16556,0 2.03138,0.65871 2.03138,1.54545 0,1.74003 4.34931,6.45455 5.95455,6.45455 0.575,0 1.04545,0.9 1.04545,2 0,1.1 0.65917,2 1.46482,2 0.80565,0 1.94648,0.9 2.53518,2 0.5887,1.1 1.95453,2 3.03518,2 1.10552,0 1.96482,0.67589 1.96482,1.54545 0,1.48524 4.25441,6.45455 5.52597,6.45455 0.88832,0 2.83412,2.0824 4.90563,5.25 0.98913,1.5125 2.64667,2.75 3.68341,2.75 1.21832,0 1.88499,0.70734 1.88499,2 0,1.55556 0.66667,2 3,2 2.37805,0 3,0.43404 3,2.09362 0,1.25262 0.8034,2.30371 2,2.61663 1.10692,0.28947 2,1.36402 2,2.40638 0,1.2167 0.70795,1.88337 2,1.88337 1.11111,0 2,0.66667 2,1.5 0,0.825 0.45,1.5 1,1.5 0.55,0 1,0.9 1,2 0,1.55556 0.66667,2 3,2 2.34878,0 3,0.44096 3,2.03138 0,1.11727 0.78632,2.33313 1.74737,2.70192 2.18197,0.8373 6.25263,4.84365 6.25263,6.15386 0,0.53793 0.9,1.26371 2,1.61284 1.1,0.34913 2,1.27945 2,2.06739 0,0.78793 0.9,1.43261 2,1.43261 1.34363,0 2,0.66667 2,2.03138 0,1.11727 0.7875,2.33226 1.75,2.69998 2.17807,0.83214 10.25,8.92332 10.25,10.27445 0,0.5468 0.70714,0.99419 1.57143,0.99419 1.52716,0 4.42857,2.25842 4.42857,3.44715 0,0.78332 11.86281,12.55285 12.65234,12.55285 0.81706,0 5.34488,5.29303 5.34644,6.25 6.7e-4,0.4125 0.56372,0.75129 1.25122,0.75288 0.6875,0.002 2.15,1.365 3.25,3.02982 1.1,1.66482 3.0125,3.28731 4.25,3.60553 1.2375,0.31822 2.25,0.90981 2.25,1.31464 0,0.40483 1.12445,2.04354 2.49878,3.64159 1.37433,1.59805 2.49933,3.24304 2.5,3.65554 6.7e-4,0.4125 0.56372,0.75129 1.25122,0.75288 0.6875,0.002 2.15,1.35028 3.25,2.99712 1.23116,1.8432 2.86494,2.99535 4.25,2.99712 1.2375,0.002 2.25,0.60789 2.25,1.34734 0,0.73945 1.12445,2.65195 2.49878,4.25 1.37433,1.59805 2.49933,3.24304 2.5,3.65554 6.7e-4,0.4125 0.67622,0.75 1.50122,0.75 0.825,0 1.5,0.45 1.5,1 0,0.55 0.9,1 2,1 1.33333,0 2,0.66667 2,2 0,1.33333 0.66667,2 2,2 1.11111,0 2,0.66667 2,1.5 0,0.825 0.86968,1.5 1.93261,1.5 1.06294,0 2.21826,0.9 2.56739,2 0.34913,1.1 1.00567,2 1.45898,2 0.45331,0 1.10656,1.125 1.45166,2.5 0.40513,1.61415 1.32939,2.5 2.60841,2.5 1.31428,0 1.98095,0.67308 1.98095,2 0,1.33333 0.66667,2 2,2 1.11111,0 2,0.66667 2,1.5 0,0.83333 0.88889,1.5 2,1.5 1.1,0 2,0.49814 2,1.10699 0,0.61111 0.72811,0.82759 1.62544,0.48325 3.37673,-1.29577 -20.99749,23.53649 -187.63008,191.15605 -110.1703,110.82286 -173.33463,173.65031 -177.12817,176.18361 -9.60156,6.4116 -15.7571,8.3006 -28.36719,8.7053 -7.59633,0.2437 -12.6169,-0.1011 -16.22549,-1.1144 z"
         id="path8279" />
      <path
         style="fill:#1759bc"
         d="M 169.87774,683.25 C 66.91229,580.1707 37.584555,550.26592 35.108478,545.82907 25.374113,528.38618 26.06798,504.96574 36.812235,488.32129 41.251301,481.44452 238.34185,284.96245 244.03817,281.73513 c 9.06576,-5.13632 16.58699,-7.01657 27.96183,-6.99026 12.56584,0.0291 20.64635,2.25073 29.57213,8.13061 3.84127,2.53044 46.75391,44.77325 121.91172,120.0088 l 115.98385,116.10381 -8.48024,8.75595 C 526.32333,532.55982 473.89532,585.325 414.48076,645 335.86534,723.96004 305.58067,755.00241 303.24548,759.01835 c -8.2955,14.26616 -9.38389,34.56695 -2.66745,49.754 2.69757,6.0997 2.73174,6.22765 1.66308,6.22765 -0.41739,0 -59.9809,-59.2875 -132.36337,-131.75 z"
         id="path8277" />
    </g>
  </g>
</svg>
